<svg width="34" height="34" viewBox="0 0 34 34" fill="none" xmlns="http://www.w3.org/2000/svg">
<g clip-path="url(#clip0_3_171)">
<path d="M33.3228 8.76274C33.1306 8.03941 32.7518 7.37925 32.2242 6.84833C31.6967 6.31741 31.039 5.93436 30.3169 5.73751C27.6587 5.02274 17.0337 5.02274 17.0337 5.02274C17.0337 5.02274 6.40872 5.02274 3.75054 5.73751C3.02846 5.93436 2.37074 6.31741 1.84321 6.84833C1.31569 7.37925 0.936855 8.03941 0.744631 8.76274C0.033722 11.4325 0.0337219 17 0.0337219 17C0.0337219 17 0.033722 22.5675 0.744631 25.2373C0.936855 25.9606 1.31569 26.6208 1.84321 27.1517C2.37074 27.6826 3.02846 28.0657 3.75054 28.2625C6.40872 28.9773 17.0337 28.9773 17.0337 28.9773C17.0337 28.9773 27.6587 28.9773 30.3169 28.2625C31.039 28.0657 31.6967 27.6826 32.2242 27.1517C32.7518 26.6208 33.1306 25.9606 33.3228 25.2373C34.0337 22.5675 34.0337 17 34.0337 17C34.0337 17 34.0337 11.4325 33.3228 8.76274Z" fill="#FF0302"/>
<path d="M13.5565 22.0556V11.9445L22.4428 17L13.5565 22.0556Z" fill="#FEFEFE"/>
</g>
<defs>
<clipPath id="clip0_3_171">
<rect width="34" height="34" fill="white"/>
</clipPath>
</defs>
</svg>
